<svg id="Layer_1" data-name="Layer 1" xmlns="http://www.w3.org/2000/svg" viewBox="0 0 491.46 135"><defs><style>.cls-1{fill:#bdccd4;}.cls-2{fill:#a67c52;}.cls-3{fill:#fff;}.cls-4{fill:none;stroke:#c7b299;stroke-miterlimit:10;stroke-width:7px;}.cls-5{font-size:38.6px;fill:#ccc;font-family:GeometosRounded, Geometos Rounded;}.cls-6{letter-spacing:-0.05em;}.cls-7{letter-spacing:-0.02em;}.cls-8{letter-spacing:0em;}.cls-9{letter-spacing:-0.01em;}</style></defs><title>simplemil logo</title><path class="cls-1" d="M532.78,471.78l3.17-4.23c3.3,2.65,6.65,4.5,11.21,4.5,5,0,7.46-2.66,7.46-5.9,0-3.91-4.48-5.64-8.69-7.2-5.32-1.94-11.32-4.56-11.32-11,0-6.07,4.87-10.77,13.1-10.77a19.24,19.24,0,0,1,11.8,4.26l-3.07,4.12c-2.61-1.93-5.3-3.38-8.66-3.38-4.78,0-7,2.55-7,5.45,0,3.61,4.13,5,8.43,6.58,5.47,2.07,11.58,4.29,11.58,11.52,0,6.16-4.9,11.29-13.86,11.29A22.82,22.82,0,0,1,532.78,471.78Z" transform="translate(-374 -409)"/><path class="cls-1" d="M568.55,426.19a4.45,4.45,0,0,1,8.88,0,4.45,4.45,0,0,1-8.88,0Zm1.18,11.95h6.42v38h-6.42Z" transform="translate(-374 -409)"/><path class="cls-1" d="M589,438.14h5.3l.55,5.51H595c3.32-3.59,7.29-6.44,11.82-6.44,5.8,0,8.91,2.78,10.48,7.23,3.94-4.27,7.9-7.23,12.52-7.23,7.8,0,11.55,5.16,11.55,14.84v24.06H635V452.88c0-7.07-2.24-10.09-7.07-10.09-2.94,0-6,1.92-9.51,5.83v27.49H612V452.88c0-7.07-2.24-10.09-7.06-10.09-2.85,0-6,1.92-9.52,5.83v27.49H589Z" transform="translate(-374 -409)"/><path class="cls-1" d="M653.71,438.14H659l.54,4.39h.21c3.44-2.86,7.71-5.32,12.11-5.32,9.81,0,15,7.61,15,19.34,0,12.94-7.77,20.5-16.44,20.5-3.48,0-7-1.6-10.53-4.4l.17,6.63v12.85h-6.42Zm26.58,18.47c0-8.38-2.86-14-10-14-3.21,0-6.45,1.77-10.15,5.18V467.7c3.44,2.88,6.74,3.94,9.25,3.94C675.66,471.64,680.29,466,680.29,456.61Z" transform="translate(-374 -409)"/><path class="cls-1" d="M696.73,468.49v-48h6.42V469c0,2,.86,2.74,1.79,2.74a5.43,5.43,0,0,0,1.41-.16l.87,4.91a10.27,10.27,0,0,1-3.7.6C698.71,477.05,696.73,474,696.73,468.49Z" transform="translate(-374 -409)"/><path class="cls-1" d="M713.83,457.18c0-12.36,8.33-20,17.07-20,9.68,0,15.15,7,15.15,17.81a20.81,20.81,0,0,1-.3,3.65H720.18c.46,8.05,5.38,13.26,12.61,13.26a16.64,16.64,0,0,0,9.45-3l2.3,4.21A22.29,22.29,0,0,1,732,477.05C721.88,477.05,713.83,469.65,713.83,457.18Zm26.54-3.11c0-7.61-3.42-11.74-9.36-11.74-5.34,0-10.11,4.28-10.89,11.74Z" transform="translate(-374 -409)"/><path class="cls-1" d="M771,438.14h5.31l.54,5.51h.21c3.33-3.59,7.3-6.44,11.82-6.44,5.8,0,8.92,2.78,10.48,7.23,3.94-4.27,7.9-7.23,12.52-7.23,7.81,0,11.55,5.16,11.55,14.84v24.06H817V452.88c0-7.07-2.24-10.09-7.06-10.09-3,0-6,1.92-9.52,5.83v27.49H794V452.88c0-7.07-2.24-10.09-7.07-10.09-2.85,0-6,1.92-9.52,5.83v27.49H771Z" transform="translate(-374 -409)"/><path class="cls-1" d="M834.56,426.19a4.44,4.44,0,0,1,8.87,0,4.44,4.44,0,0,1-8.87,0Zm1.17,11.95h6.43v38h-6.43Z" transform="translate(-374 -409)"/><path class="cls-1" d="M855,468.49v-48h6.42V469c0,2,.86,2.74,1.8,2.74a5.37,5.37,0,0,0,1.4-.16l.87,4.91a10.27,10.27,0,0,1-3.7.6C857,477.05,855,474,855,468.49Z" transform="translate(-374 -409)"/><rect class="cls-2" x="31" y="43.58" width="75.38" height="61.42" rx="12" ry="12"/><rect class="cls-2" x="46.63" y="31.3" width="44.11" height="35.18" rx="12" ry="12"/><path class="cls-3" d="M442.16,469.87a9.78,9.78,0,0,0-13.85,0h0a9.79,9.79,0,0,0,0,13.84l1.31,1.31,13.84-13.85Z" transform="translate(-374 -409)"/><path class="cls-3" d="M458.61,483.71a9.77,9.77,0,0,0,0-13.84h0a9.77,9.77,0,0,0-13.84,0l-1.31,1.3L457.31,485Z" transform="translate(-374 -409)"/><path class="cls-3" d="M443.46,471.17,429.62,485l11.84,11.84a2.85,2.85,0,0,0,4,0L457.31,485Z" transform="translate(-374 -409)"/><rect class="cls-4" x="3.5" y="3.5" width="128" height="128"/><text class="cls-5" transform="translate(156.58 118.38)">PH<tspan class="cls-6" x="57.05" y="0">O</tspan><tspan class="cls-7" x="87.66" y="0">T</tspan><tspan class="cls-8" x="111.06" y="0">OG</tspan><tspan class="cls-9" x="175.67" y="0">R</tspan><tspan x="203.04" y="0">APHY</tspan></text></svg>